<?xml version="1.0" encoding="UTF-8"?>
<svg version="1.1" xmlns="http://www.w3.org/2000/svg" width="500" height="500">
<path d="M0 0 C165 0 330 0 500 0 C500 165 500 330 500 500 C335 500 170 500 0 500 C0 335 0 170 0 0 Z " fill="#FEFEFE" transform="translate(0,0)"/>
<path d="M0 0 C14.14875 -0.0825 28.2975 -0.165 42.875 -0.25 C47.32597168 -0.28641602 51.77694336 -0.32283203 56.36279297 -0.36035156 C61.84008789 -0.37841797 61.84008789 -0.37841797 64.41238403 -0.3817749 C66.19115208 -0.38787702 67.96990461 -0.40186126 69.74856567 -0.42230225 C84.98226433 -0.5884692 95.64451989 0.89179165 107 12 C113.82214452 20.17144113 116.30004367 27.11879456 116.4765625 37.6484375 C116.49270599 38.57862701 116.50884949 39.50881653 116.52548218 40.4671936 C116.5530737 42.43557392 116.57455819 44.40404811 116.59033203 46.37255859 C116.61324065 48.35657427 116.65393702 50.34047313 116.71337891 52.32373047 C117.16052644 67.27444543 115.44155796 78.51578698 106.01391602 90.53125 C96.8940547 99.7272442 84.50203968 102.62450752 72.03194237 102.69574356 C69.40738721 102.67885004 66.78431456 102.6335469 64.16015625 102.5859375 C62.50745872 102.57708731 60.85474419 102.57098384 59.20202637 102.56762695 C53.15525678 102.53649923 47.10885004 102.45273338 41.0625 102.375 C27.511875 102.25125 13.96125 102.1275 0 102 C0 68.34 0 34.68 0 0 Z " fill="#040404" transform="translate(193,204)"/>
<path d="M0 0 C15.46875 -0.103125 30.9375 -0.20625 46.875 -0.3125 C51.74362793 -0.35802002 56.61225586 -0.40354004 61.62841797 -0.45043945 C67.61352539 -0.47302246 67.61352539 -0.47302246 70.42312622 -0.47721863 C72.36857841 -0.48485301 74.31400821 -0.50234778 76.25930786 -0.52787781 C97.23873574 -0.78923981 97.23873574 -0.78923981 105 5 C105.57048065 5.38004684 106.1409613 5.76009369 106.72872925 6.1516571 C111.72338043 9.81254384 115.063831 15.191493 117 21 C117.31231274 25.03634572 117.32406543 29.07801671 117.375 33.125 C117.43107422 34.78015625 117.43107422 34.78015625 117.48828125 36.46875 C117.58151746 45.19151515 115.76194628 50.87288311 109.8671875 57.33984375 C108.88105469 58.13068359 108.88105469 58.13068359 107.875 58.9375 C107.21242188 59.48277344 106.54984375 60.02804687 105.8671875 60.58984375 C101.9217897 63.56952703 99.92273137 64.21878806 95 64 C99.54896963 70.18907432 104.10752039 76.27631341 109.2421875 81.99609375 C112.64399076 85.87414946 115.7999568 89.95540932 119 94 C119.73863281 94.88300781 120.47726563 95.76601563 121.23828125 96.67578125 C123 99 123 99 123 101 C114.16372597 101.64612369 105.33397711 102.05150958 96.47265625 101.86328125 C95.72928513 101.86798431 94.985914 101.87268738 94.22001648 101.87753296 C89.0404235 101.69651142 86.31574346 100.21498976 82.53131104 96.70443726 C80.55661647 94.3988843 79.38421426 91.91187334 78.12255859 89.17041016 C75.95677645 84.98298013 72.86005264 81.4281682 69.9375 77.75 C68.84005444 76.30911151 67.74482287 74.86653267 66.65234375 73.421875 C65.16607258 71.4601312 63.74571968 69.74571968 62 68 C59.42514635 67.75479372 56.94688474 67.62642023 54.3671875 67.5859375 C53.70082275 67.56829346 53.03445801 67.55064941 52.34790039 67.5324707 C49.85717966 67.46937509 47.36605335 67.42320804 44.875 67.375 C36.521875 67.189375 36.521875 67.189375 28 67 C28 78.22 28 89.44 28 101 C18.76 101 9.52 101 0 101 C0 67.67 0 34.34 0 0 Z " fill="#020202" transform="translate(62,204)"/>
<path d="M0 0 C9.57 0 19.14 0 29 0 C29 12.54 29 25.08 29 38 C48.14 38 67.28 38 87 38 C87 25.46 87 12.92 87 0 C96.57 0 106.14 0 116 0 C116 33.99 116 67.98 116 103 C106.43 103 96.86 103 87 103 C87 90.46 87 77.92 87 65 C67.86 65 48.72 65 29 65 C29.03960283 77.13173597 29.03960283 77.13173597 29.09008789 89.26342773 C29.09300707 90.77848236 29.09555562 92.29353777 29.09765625 93.80859375 C29.10277222 94.60237427 29.10788818 95.39615479 29.11315918 96.21398926 C29.11346956 98.14302829 29.06235893 100.07196912 29 102 C28.67 102.33 28.34 102.66 28 103 C18.76 103 9.52 103 0 103 C0 69.01 0 35.02 0 0 Z " fill="#040404" transform="translate(323,203)"/>
<path d="M0 0 C7.01193323 -0.11490786 14.02058956 -0.21441658 21.03271484 -0.2746582 C23.41694214 -0.29977409 25.80109265 -0.33387324 28.18505859 -0.37719727 C31.61575279 -0.43797447 35.04542744 -0.46623993 38.4765625 -0.48828125 C39.53928375 -0.51408768 40.602005 -0.5398941 41.69692993 -0.56648254 C49.97457873 -0.56960681 49.97457873 -0.56960681 53.65771484 2.40551758 C58.48861299 7.75656559 57.29796902 14.48358296 57.35009766 21.34765625 C57.36662653 22.94220608 57.39387651 24.53668275 57.43212891 26.13085938 C57.48714107 28.43658655 57.50880817 30.7405783 57.5234375 33.046875 C57.54610687 33.75334167 57.56877625 34.45980835 57.59213257 35.18768311 C57.57594892 39.01377226 57.02128491 41.43749081 54.65478516 44.37207031 C50.09988396 48.88089471 50.09988396 48.88089471 46.77900696 49.24050903 C45.91518906 49.23606781 45.05137115 49.23162659 44.16137695 49.22705078 C43.16690552 49.22680908 42.17243408 49.22656738 41.14782715 49.22631836 C40.105177 49.21608643 39.06252686 49.20585449 37.98828125 49.1953125 C36.54793518 49.19229126 36.54793518 49.19229126 35.07849121 49.18920898 C31.48977892 49.1787409 27.90113469 49.15081834 24.3125 49.125 C12.2778125 49.063125 12.2778125 49.063125 0 49 C0 32.83 0 16.66 0 0 Z " fill="#FAFAFA" transform="translate(222,231)"/>
<path d="M0 0 C4.186875 -0.061875 8.37375 -0.12375 12.6875 -0.1875 C13.99936279 -0.21481201 15.31122559 -0.24212402 16.6628418 -0.27026367 C17.70609619 -0.27775635 18.74935059 -0.28524902 19.82421875 -0.29296875 C20.88729248 -0.3086792 21.95036621 -0.32438965 23.0456543 -0.34057617 C26.42477331 0.04896775 28.27990964 0.99204546 31 3 C32.20272819 5.40545638 32.10071472 6.94996953 32.0625 9.625 C32.05347656 10.44226563 32.04445312 11.25953125 32.03515625 12.1015625 C32.02355469 12.72804688 32.01195312 13.35453125 32 14 C30.68 14.33 29.36 14.66 28 15 C28 15.66 28 16.32 28 17 C29.65 17.66 31.3 18.32 33 19 C33.30497051 27.99663016 33.30497051 27.99663016 31 32 C27.64264863 33.11911712 25.11794614 33.11365586 21.58203125 33.09765625 C19.88784058 33.09390991 19.88784058 33.09390991 18.15942383 33.09008789 C16.00769653 33.07643188 16.00769653 33.07643188 13.8125 33.0625 C9.254375 33.041875 4.69625 33.02125 0 33 C0 22.11 0 11.22 0 0 Z " fill="#141414" transform="translate(189,330)"/>
<path d="M0 0 C0.78632813 -0.02449219 1.57265625 -0.04898437 2.3828125 -0.07421875 C9.06745311 -0.10753091 13.16002375 1.53146357 18.16015625 6.1328125 C19.7692452 9.44326791 19.72384847 12.64819679 19.6875 16.25 C19.7174707 17.29220703 19.7174707 17.29220703 19.74804688 18.35546875 C19.7431928 23.51049131 18.50058982 26.42701092 15.25 30.375 C8.80570066 34.67119956 0.73624755 34.1987295 -6.75 33.375 C-10.19021199 32.10388472 -12.1929835 31.01562786 -14.59765625 28.25 C-16.20369737 24.2430635 -16.2257017 20.65359037 -16.1875 16.375 C-16.20748047 15.5809375 -16.22746094 14.786875 -16.24804688 13.96875 C-16.24472578 9.983434 -16.0696073 7.88528596 -13.91015625 4.4375 C-9.43128353 0.16110796 -5.925046 0.0095258 0 0 Z " fill="#0F0F0F" transform="translate(243.75,329.625)"/>
<path d="M0 0 C4.4138766 5.06778424 4.13297806 12.77490557 3.99609375 19.16015625 C3.55849989 23.09850095 2.4841988 25.1408012 -0.3125 27.9375 C-6.68214872 32.18393248 -14.91937963 31.77352913 -22.3125 30.9375 C-26.41247254 29.10610016 -28.97729439 26.77315447 -31.3125 22.9375 C-31.92023012 20.12911646 -31.97834877 17.42877395 -31.9375 14.5625 C-31.93274658 13.80388672 -31.92799316 13.04527344 -31.9230957 12.26367188 C-31.76298335 7.92514364 -31.38546973 4.87703748 -28.5 1.4375 C-22.07815735 -4.524507 -7.65740141 -3.51826551 0 0 Z " fill="#0B0B0B" transform="translate(177.3125,332.0625)"/>
<path d="M0 0 C7.90199729 -0.07409547 15.80379283 -0.12857703 23.70605469 -0.16479492 C26.39496247 -0.17819884 29.08365852 -0.19908356 31.77246094 -0.22631836 C35.6348275 -0.26266166 39.49686879 -0.27971773 43.359375 -0.29296875 C45.16580475 -0.31619453 45.16580475 -0.31619453 47.00872803 -0.33988953 C48.69001801 -0.34022942 48.69001801 -0.34022942 50.40527344 -0.34057617 C51.39122498 -0.34723801 52.37717651 -0.35389984 53.39300537 -0.36076355 C56.47368886 0.06555045 57.83111403 0.78554111 60 3 C60.69095895 7.7599394 60.95557282 9.58430213 58.24316406 13.6027832 C54.71663731 16.98994543 50.70645748 16.56808082 46.04789734 16.56648254 C44.8706459 16.54067612 43.69339447 16.51486969 42.48046875 16.48828125 C41.26676102 16.48120651 40.05305328 16.47413177 38.80256653 16.46684265 C34.93024788 16.43887889 31.05938083 16.37613091 27.1875 16.3125 C24.56056777 16.28741996 21.93361286 16.26460629 19.30664062 16.24414062 C12.87053538 16.18904475 6.43551371 16.10275323 0 16 C0 10.72 0 5.44 0 0 Z " fill="#F7F7F7" transform="translate(90,231)"/>
<path d="M0 0 C4.33125 -0.103125 8.6625 -0.20625 13.125 -0.3125 C14.47996582 -0.35802002 15.83493164 -0.40354004 17.23095703 -0.45043945 C27.17568388 -0.56528319 27.17568388 -0.56528319 30.8203125 2.17578125 C33.87863124 6.13844155 33.84491226 8.54638933 33.609375 13.39453125 C32.93250493 16.28858468 32.25788675 17.31130363 30 19.1875 C29.01 19.785625 28.02 20.38375 27 21 C29.20919664 24.75563429 31.56384272 28.38776679 34 32 C30.51956221 32.56723433 27.45868019 32.77198148 24 32 C21.88458019 29.85478554 20.38960662 27.58474111 18.73828125 25.0703125 C16.69436094 22.63598044 15.67348639 22.27529537 12.5625 21.9375 C10.7990625 21.9684375 10.7990625 21.9684375 9 22 C9.01160156 22.71027344 9.02320312 23.42054688 9.03515625 24.15234375 C9.04869141 25.53099609 9.04869141 25.53099609 9.0625 26.9375 C9.07410156 27.85402344 9.08570312 28.77054687 9.09765625 29.71484375 C9 32 9 32 8 33 C5.36 33 2.72 33 0 33 C0 22.11 0 11.22 0 0 Z " fill="#111111" transform="translate(107,330)"/>
<path d="M0 0 C7.92 0 15.84 0 24 0 C28.70175439 10.57894737 28.70175439 10.57894737 28 14 C27.10653654 16.03325563 26.13213146 17.98689924 25.0703125 19.9375 C23.87719799 22.23664036 22.93102713 24.58436205 22 27 C3.17995444 29.29612756 3.17995444 29.29612756 -6 29 C-4.36519166 19.21433874 -2.55149605 9.59848513 0 0 Z " fill="#0A0A0A" transform="translate(148,156)"/>
<path d="M0 0 C8.58 0 17.16 0 26 0 C26.28875 2.206875 26.5775 4.41375 26.875 6.6875 C27.81576777 13.80775906 28.87553493 20.90630012 30 28 C26.99978513 27.85785272 23.99988211 27.71138304 21 27.5625 C20.16082031 27.52318359 19.32164062 27.48386719 18.45703125 27.44335938 C13.25986542 27.18148668 8.15542847 26.7100648 3 26 C2.18167278 24.10667466 1.37057732 22.21022267 0.5625 20.3125 C0.11003906 19.25675781 -0.34242188 18.20101562 -0.80859375 17.11328125 C-3.69754336 9.56412441 -2.96973505 8.90920514 0 0 Z " fill="#070707" transform="translate(319,157)"/>
<path d="M0 0 C0.75861328 -0.00386719 1.51722656 -0.00773437 2.29882812 -0.01171875 C5.5602639 -0.00596158 8.19763748 0.08671249 11.3125 1.125 C11.3125 3.435 11.3125 5.745 11.3125 8.125 C4.7125 8.125 -1.8875 8.125 -8.6875 8.125 C-8.6875 9.445 -8.6875 10.765 -8.6875 12.125 C-7.65109375 12.18558594 -6.6146875 12.24617188 -5.546875 12.30859375 C-4.17707127 12.39303371 -2.80728025 12.47767997 -1.4375 12.5625 C-0.41462891 12.62147461 -0.41462891 12.62147461 0.62890625 12.68164062 C9.05746807 13.21354016 9.05746807 13.21354016 12.0390625 15.37890625 C13.73123182 17.69915069 13.71322144 19.21170678 13.6875 22.0625 C13.69910156 23.34447266 13.69910156 23.34447266 13.7109375 24.65234375 C13.21956244 27.70175956 12.52268408 28.96610711 10.3125 31.125 C5.81450526 33.16426304 1.77473014 33.39506031 -3.125 33.375 C-5.01025391 33.38273437 -5.01025391 33.38273437 -6.93359375 33.390625 C-10.86688665 33.11230667 -13.95782288 32.33774662 -17.6875 31.125 C-17.6875 28.815 -17.6875 26.505 -17.6875 24.125 C-17.04425781 24.28871094 -16.40101563 24.45242188 -15.73828125 24.62109375 C-11.75909829 25.27834676 -7.8993563 25.231353 -3.875 25.1875 C-2.69260742 25.18073242 -2.69260742 25.18073242 -1.48632812 25.17382812 C0.44664761 25.16211312 2.37958393 25.14417998 4.3125 25.125 C3.9825 23.805 3.6525 22.485 3.3125 21.125 C2.28769531 21.08761719 1.26289063 21.05023438 0.20703125 21.01171875 C-1.15368062 20.94602921 -2.51435611 20.87958291 -3.875 20.8125 C-4.54853516 20.78994141 -5.22207031 20.76738281 -5.91601562 20.74414062 C-10.29055967 20.50940899 -13.19185743 19.79238397 -16.6875 17.125 C-18.96808385 13.21542769 -19.17400789 9.58465569 -18.6875 5.125 C-16.71798315 2.24647538 -15.48401329 1.30651427 -12.08203125 0.53125 C-8.03138942 0.04647814 -4.07484558 -0.02109497 0 0 Z " fill="#0E0E0E" transform="translate(381.6875,329.875)"/>
<path d="M0 0 C0.78439453 -0.00128906 1.56878906 -0.00257813 2.37695312 -0.00390625 C3.59995117 0.00189453 3.59995117 0.00189453 4.84765625 0.0078125 C5.65912109 0.00394531 6.47058594 0.00007813 7.30664062 -0.00390625 C8.09232422 -0.00261719 8.87800781 -0.00132812 9.6875 0 C10.75859009 0.00169189 10.75859009 0.00169189 11.85131836 0.00341797 C13.97799521 0.13707607 15.86370148 0.55320908 17.91015625 1.1328125 C17.91015625 3.7728125 17.91015625 6.4128125 17.91015625 9.1328125 C17.00922241 9.12495728 17.00922241 9.12495728 16.09008789 9.11694336 C13.38428787 9.09623236 10.67850448 9.08317125 7.97265625 9.0703125 C7.02712891 9.06193359 6.08160156 9.05355469 5.10742188 9.04492188 C4.20830078 9.04169922 3.30917969 9.03847656 2.3828125 9.03515625 C1.55015869 9.02991943 0.71750488 9.02468262 -0.14038086 9.01928711 C-2.09501173 8.91637958 -2.09501173 8.91637958 -3.08984375 10.1328125 C-3.21522116 12.27589146 -3.26558739 14.42360136 -3.27734375 16.5703125 C-3.29861328 18.33181641 -3.29861328 18.33181641 -3.3203125 20.12890625 C-3.40883631 23.24778152 -3.40883631 23.24778152 -1.08984375 25.1328125 C0.94483059 25.40967315 0.94483059 25.40967315 3.26171875 25.328125 C4.1125 25.32167969 4.96328125 25.31523437 5.83984375 25.30859375 C6.72929687 25.29183594 7.61875 25.27507812 8.53515625 25.2578125 C9.43234375 25.24878906 10.32953125 25.23976563 11.25390625 25.23046875 C13.47292211 25.2068622 15.69140702 25.1739356 17.91015625 25.1328125 C17.91015625 27.4428125 17.91015625 29.7528125 17.91015625 32.1328125 C13.36864543 33.00887554 9.03347055 33.29682005 4.41015625 33.3203125 C3.14171875 33.33449219 1.87328125 33.34867187 0.56640625 33.36328125 C-3.0711001 33.13399399 -5.76443758 32.60646188 -9.08984375 31.1328125 C-13.60293758 25.07576551 -13.80246631 19.0857298 -13.6171875 11.65234375 C-12.97388597 7.35890167 -11.77930136 5.20414205 -8.6953125 2.234375 C-5.86530253 0.29261633 -3.3244774 0.00525965 0 0 Z " fill="#101010" transform="translate(338.08984375,329.8671875)"/>
<path d="M0 0 C3.81248426 -0.02887236 7.6249407 -0.04675492 11.4375 -0.0625 C12.52611328 -0.07087891 13.61472656 -0.07925781 14.73632812 -0.08789062 C15.77080078 -0.09111328 16.80527344 -0.09433594 17.87109375 -0.09765625 C18.82943115 -0.10289307 19.78776855 -0.10812988 20.77514648 -0.11352539 C23 0 23 0 24 1 C24.18153617 3.41353832 24.27814571 5.77124819 24.3125 8.1875 C24.34988281 9.50105469 24.38726562 10.81460938 24.42578125 12.16796875 C23.94037036 16.53666673 22.75825555 18.62766158 20 22 C17.06461547 23.46769227 14.39222984 23.28669649 11.125 23.375 C9.89007813 23.42398438 8.65515625 23.47296875 7.3828125 23.5234375 C4 23 4 23 1.5703125 21.05859375 C-0.59684068 16.83749689 -0.44151065 13.35373053 -0.25 8.6875 C-0.23195312 7.85154297 -0.21390625 7.01558594 -0.1953125 6.15429688 C-0.14841126 4.10236772 -0.07667411 2.05103244 0 0 Z " fill="#0B0B0B" transform="translate(235,138)"/>
<path d="M0 0 C0.71353638 0.00202423 1.42707275 0.00404846 2.16223145 0.00613403 C2.89091431 0.00517731 3.61959717 0.00422058 4.37036133 0.00323486 C5.91377855 0.00255318 7.45719861 0.00440666 9.00061035 0.00857544 C11.37095544 0.01392391 13.74111104 0.00863011 16.1114502 0.00222778 C17.60754437 0.00288857 19.10363842 0.00416973 20.59973145 0.00613403 C21.31326782 0.0041098 22.0268042 0.00208557 22.76196289 0 C27.76602953 0.02399462 27.76602953 0.02399462 28.88098145 1.13894653 C28.92191082 3.47192086 28.92339868 5.80599878 28.88098145 8.13894653 C24.59098145 8.13894653 20.30098145 8.13894653 15.88098145 8.13894653 C15.89258301 9.85984497 15.90418457 11.58074341 15.9161377 13.35379028 C15.92551378 15.59467462 15.93461417 17.83556012 15.94348145 20.07644653 C15.95186035 21.21275513 15.96023926 22.34906372 15.96887207 23.51980591 C15.97370605 25.13919067 15.97370605 25.13919067 15.9786377 26.79129028 C15.98649292 28.29163818 15.98649292 28.29163818 15.99450684 29.82229614 C15.88098145 32.13894653 15.88098145 32.13894653 14.88098145 33.13894653 C12.24098145 33.13894653 9.60098145 33.13894653 6.88098145 33.13894653 C6.88098145 24.88894653 6.88098145 16.63894653 6.88098145 8.13894653 C2.59098145 8.13894653 -1.69901855 8.13894653 -6.11901855 8.13894653 C-6.16143579 5.80599878 -6.15994793 3.47192086 -6.11901855 1.13894653 C-4.41408974 -0.56598228 -2.27367595 0.01090233 0 0 Z " fill="#1B1B1B" transform="translate(273.1190185546875,329.8610534667969)"/>
<path d="M0 0 C7.6439998 3.20415781 11.03487991 12.83848113 14 20 C14.6953125 22.93359375 14.6953125 22.93359375 15 25 C11.55631422 23.10934898 8.43120418 21.34907005 5.375 18.875 C0.25231834 14.83077764 -4.64939397 14.30780592 -11 15 C-16.97744439 16.92132141 -21.89804044 20.42515759 -27 24 C-25.63176534 15.41314798 -21.26448942 6.56962034 -14.33984375 1.16015625 C-9.62833807 -1.17593254 -5.06652807 -1.05669301 0 0 Z " fill="#111111" transform="translate(289,162)"/>
<path d="M0 0 C6.97593133 2.87667271 9.83999981 8.65489323 12.96875 15.1953125 C14 18 14 18 14 22 C10.69468782 20.86379894 8.17462423 19.40847192 5.375 17.375 C0.40041741 14.21191635 -4.26436871 14.08865334 -10 15 C-15.08347002 16.69736202 -18.88838495 19.61396408 -23 23 C-23.66 23 -24.32 23 -25 23 C-24.00765694 15.15356649 -20.39238982 7.97306293 -14.8125 2.3125 C-10.28757448 -1.12123773 -5.40832119 -1.12218768 0 0 Z " fill="#0E0E0E" transform="translate(215,162)"/>
<path d="M0 0 C16.17 0 32.34 0 49 0 C49 4 49 4 47.85424805 5.67895508 C41.4012513 11.21856646 34.20689675 10.88150014 26.14477539 10.72729492 C23.80626515 10.68739362 21.47337775 10.70668513 19.13476562 10.73242188 C17.63799898 10.72486664 16.14124479 10.71391705 14.64453125 10.69921875 C13.95172562 10.70620285 13.25891998 10.71318695 12.54512024 10.72038269 C8.82247803 10.61238165 7.10769261 10.08422788 4.1472168 7.76879883 C2 5 2 5 0 0 Z " fill="#0F0F0F" transform="translate(222,124)"/>
<path d="M0 0 C1.9249866 3.84997321 1.22837952 8.5775888 1.25 12.8125 C1.270625 13.81087891 1.29125 14.80925781 1.3125 15.83789062 C1.36288082 25.29059281 1.36288082 25.29059281 -2 29 C-4.9375 29.625 -4.9375 29.625 -8 29 C-13.06313659 23.80002188 -13.28588397 19.99987494 -13.21875 12.984375 C-12.86508735 8.15940602 -11.04885431 5.37436082 -8.1875 1.625 C-5.33734149 -0.4922606 -3.46690927 -0.31517357 0 0 Z " fill="#121212" transform="translate(189,125)"/>
<path d="M0 0 C1.7578125 1.6640625 1.7578125 1.6640625 2.7578125 4.5390625 C2.7578125 7.6640625 2.7578125 7.6640625 1.2578125 10.4140625 C-3.6530145 14.8338068 -9.62865836 15.13741485 -15.99609375 14.97265625 C-18.2421875 14.6640625 -18.2421875 14.6640625 -20.8671875 13.1015625 C-22.78430513 9.70303579 -22.79080388 7.50437715 -22.2421875 3.6640625 C-20.27737095 0.79240754 -18.95531503 -0.13218678 -15.6171875 -1.0859375 C-3.34794747 -1.99477009 -3.34794747 -1.99477009 0 0 Z " fill="#0A0A0A" transform="translate(382.2421875,165.3359375)"/>
<path d="M0 0 C3.0625 0.6875 3.0625 0.6875 5 1.75 C6.76059206 4.9604914 6.66292821 8.17676092 6.0625 11.6875 C4.6875 14.1875 4.6875 14.1875 2.0625 15.6875 C-4.50898219 16.69760415 -10.01090412 15.54496587 -15.9375 12.6875 C-18.04114211 9.53203684 -18.20161176 9.12662739 -17.75 5.625 C-17.67394531 4.93277344 -17.59789063 4.24054688 -17.51953125 3.52734375 C-15.48987743 -2.88854183 -5.11139106 -0.40566596 0 0 Z " fill="#080808" transform="translate(125.9375,164.3125)"/>
<path d="M0 0 C0.94746094 -0.00773437 1.89492187 -0.01546875 2.87109375 -0.0234375 C6.04785879 0.44685283 7.40160833 0.99299383 9.5625 3.375 C10.05859375 6.1875 10.05859375 6.1875 10 9.375 C9.99871094 10.426875 9.99742187 11.47875 9.99609375 12.5625 C9.5188473 15.65815263 9.03146454 16.53987722 6.5625 18.375 C4.10867866 19.60191067 2.36265897 19.57675931 -0.375 19.625 C-1.25027344 19.65078125 -2.12554687 19.6765625 -3.02734375 19.703125 C-5.4375 19.375 -5.4375 19.375 -7.23046875 18.265625 C-9.01673049 15.46772635 -8.8347153 13.16286512 -8.8125 9.875 C-8.82410156 8.15796875 -8.82410156 8.15796875 -8.8359375 6.40625 C-8.4375 3.375 -8.4375 3.375 -7.25390625 1.4921875 C-4.75586473 -0.04424234 -2.91793625 -0.02375525 0 0 Z " fill="#EDEDED" transform="translate(163.4375,336.625)"/>
<path d="M0 0 C2.125 -0.4375 2.125 -0.4375 5 0 C8.72851039 3.39847478 11.81458146 6.93390767 12.2734375 12.046875 C12.58155478 23.28130508 12.58155478 23.28130508 9.8125 26.875 C7 29 7 29 4.4375 29.75 C0.7471602 28.61451083 -0.21960662 26.29702478 -2 23 C-2 22.34 -2 21.68 -2 21 C-1.34 21 -0.68 21 0 21 C-0.03552979 20.43490723 -0.07105957 19.86981445 -0.10766602 19.28759766 C-0.26501802 16.73371428 -0.41386008 14.1794046 -0.5625 11.625 C-0.61857422 10.73554688 -0.67464844 9.84609375 -0.73242188 8.9296875 C-0.78076172 8.07890625 -0.82910156 7.228125 -0.87890625 6.3515625 C-0.9260376 5.56604004 -0.97316895 4.78051758 -1.02172852 3.97119141 C-1 2 -1 2 0 0 Z " fill="#0C0C0C" transform="translate(304,125)"/>
<path d="M0 0 C0.95648438 -0.01675781 1.91296875 -0.03351563 2.8984375 -0.05078125 C6.13090072 0.37990511 7.45207099 0.87174485 9.625 3.3125 C10.15625 6.34375 10.15625 6.34375 10.125 9.8125 C10.1353125 10.9571875 10.145625 12.101875 10.15625 13.28125 C9.625 16.3125 9.625 16.3125 7.9453125 18.19921875 C5.12225246 19.55371725 3.12262758 19.67970911 0 19.625 C-0.96164063 19.62113281 -1.92328125 19.61726563 -2.9140625 19.61328125 C-5.375 19.3125 -5.375 19.3125 -7.375 17.3125 C-7.57349071 14.76714859 -7.65351775 12.35533241 -7.625 9.8125 C-7.63273438 9.12285156 -7.64046875 8.43320312 -7.6484375 7.72265625 C-7.62348312 1.32185673 -6.27863153 0.02524919 0 0 Z " fill="#F0F0F0" transform="translate(244.375,336.6875)"/>
<path d="M0 0 C2.97 0 5.94 0 9 0 C9.02465392 4.53897705 9.04283789 9.07791543 9.05493164 13.61694336 C9.0599714 15.16219766 9.0668032 16.70744716 9.07543945 18.25268555 C9.08752076 20.46925029 9.09323173 22.68575218 9.09765625 24.90234375 C9.10281754 25.5971434 9.10797882 26.29194305 9.11329651 27.00779724 C9.11349277 28.6722933 9.06189129 30.33665499 9 32 C8.505 32.495 8.505 32.495 8 33 C5.36 33 2.72 33 0 33 C0 22.11 0 11.22 0 0 Z " fill="#1C1C1C" transform="translate(308,330)"/>
<path d="M0 0 C2.45862401 -0.05383848 4.9160755 -0.09359038 7.375 -0.125 C8.42300781 -0.15013672 8.42300781 -0.15013672 9.4921875 -0.17578125 C11.32897486 -0.19344267 13.16601963 -0.10303261 15 0 C15.66 0.66 16.32 1.32 17 2 C16.44444444 6.55555556 16.44444444 6.55555556 15 8 C12.46950598 8.07313567 9.96695163 8.09247527 7.4375 8.0625 C6.37112305 8.05573242 6.37112305 8.05573242 5.28320312 8.04882812 C3.52209987 8.03700864 1.76103964 8.01907263 0 8 C0 5.36 0 2.72 0 0 Z " fill="#D9D9D9" transform="translate(115,337)"/>
<path d="M0 0 C2.47923801 -0.02685095 4.9581884 -0.04676547 7.4375 -0.0625 C8.14455078 -0.07087891 8.85160156 -0.07925781 9.58007812 -0.08789062 C11.38693559 -0.09653588 13.19387603 -0.05220011 15 0 C15.33 0.33 15.66 0.66 16 1 C15.67 3.31 15.34 5.62 15 8 C10.05 8 5.1 8 0 8 C0 5.36 0 2.72 0 0 Z " fill="#D9D9D9" transform="translate(197,349)"/>
<path d="M0 0 C4.95 0 9.9 0 15 0 C15.33 1.65 15.66 3.3 16 5 C15 6 15 6 11.62109375 6.09765625 C10.22652923 6.09098369 8.83198257 6.07902532 7.4375 6.0625 C6.72658203 6.05798828 6.01566406 6.05347656 5.28320312 6.04882812 C3.52209987 6.03700864 1.76103964 6.01907263 0 6 C0 4.02 0 2.04 0 0 Z " fill="#E2E2E2" transform="translate(197,337)"/>
<path d="M0 0 C1.65 0 3.3 0 5 0 C5 4.62 5 9.24 5 14 C3.35 14.33 1.7 14.66 0 15 C0 10.05 0 5.1 0 0 Z " fill="#363636" transform="translate(192,129)"/>
<path d="M0 0 C1.32 0 2.64 0 4 0 C4 4.95 4 9.9 4 15 C2.68 14.67 1.36 14.34 0 14 C0 9.38 0 4.76 0 0 Z " fill="#2E2E2E" transform="translate(296,129)"/>
<path d="M0 0 C3.3 0 6.6 0 10 0 C10 0.66 10 1.32 10 2 C7.59454362 3.20272819 6.05003047 3.10071472 3.375 3.0625 C2.14910156 3.04896484 2.14910156 3.04896484 0.8984375 3.03515625 C-0.04128906 3.01775391 -0.04128906 3.01775391 -1 3 C-0.67 2.01 -0.34 1.02 0 0 Z " fill="#5B5B5B" transform="translate(365,151)"/>
<path d="M0 0 C0.33 0 0.66 0 1 0 C1 4.62 1 9.24 1 14 C0.67 14 0.34 14 0 14 C-1.13764351 9.73383684 -2 6.43513689 -2 2 C-1.34 2 -0.68 2 0 2 C0 1.34 0 0.68 0 0 Z " fill="#9D9D9D" transform="translate(303,132)"/>
<path d="M0 0 C1.98 0.495 1.98 0.495 4 1 C4 2.32 4 3.64 4 5 C2.35 5 0.7 5 -1 5 C-0.67 3.35 -0.34 1.7 0 0 Z " fill="#3D3D3D" transform="translate(94,169)"/>
<path d="M0 0 C6.625 -0.125 6.625 -0.125 10 1 C10 1.66 10 2.32 10 3 C6.7 2.67 3.4 2.34 0 2 C0 1.34 0 0.68 0 0 Z " fill="#3C3C3C" transform="translate(118,151)"/>
<path d="M0 0 C1.32 0.33 2.64 0.66 4 1 C4 2.32 4 3.64 4 5 C2.68 5 1.36 5 0 5 C0 3.35 0 1.7 0 0 Z " fill="#2C2C2C" transform="translate(395,169)"/>
<path d="M0 0 C-1.44253657 3.36591866 -3.33264727 5.51047079 -6 8 C-5.62403791 5.21788056 -5.32681541 3.4120716 -3.5625 1.1875 C-2 0 -2 0 0 0 Z " fill="#3B3B3B" transform="translate(369,331)"/>
</svg>
